<svg width="200" height="60" viewBox="0 0 200 60" fill="none" xmlns="http://www.w3.org/2000/svg">
  <!-- Logo Background -->
  <rect width="200" height="60" fill="white"/>
  
  <!-- DNA Icon Background Circle -->
  <circle cx="30" cy="30" r="25" fill="url(#gradient)"/>
  
  <!-- DNA Helix Strands -->
  <path d="M17 10C23 16 23 22 17 30C23 38 23 44 17 50" stroke="white" stroke-width="2.5" stroke-linecap="round" fill="none"/>
  <path d="M43 10C37 16 37 22 43 30C37 38 37 44 43 50" stroke="white" stroke-width="2.5" stroke-linecap="round" fill="none"/>
  
  <!-- DNA Base Pairs -->
  <line x1="20" y1="13" x2="40" y2="13" stroke="white" stroke-width="2" stroke-linecap="round"/>
  <line x1="22" y1="19" x2="38" y2="19" stroke="white" stroke-width="2" stroke-linecap="round"/>
  <line x1="20" y1="25" x2="40" y2="25" stroke="white" stroke-width="2" stroke-linecap="round"/>
  <line x1="20" y1="31" x2="40" y2="31" stroke="white" stroke-width="2" stroke-linecap="round"/>
  <line x1="22" y1="37" x2="38" y2="37" stroke="white" stroke-width="2" stroke-linecap="round"/>
  <line x1="20" y1="43" x2="40" y2="43" stroke="white" stroke-width="2" stroke-linecap="round"/>
  
  <!-- Company Name -->
  <text x="70" y="25" font-family="Inter, Arial, sans-serif" font-size="18" font-weight="700" fill="#1F2937">DNA Testing VN</text>
  
  <!-- Tagline -->
  <text x="70" y="42" font-family="Inter, Arial, sans-serif" font-size="10" font-weight="500" fill="#6B7280">Chuyên nghiệp • Uy tín • Chính xác</text>
  
  <defs>
    <linearGradient id="gradient" x1="0%" y1="0%" x2="100%" y2="100%">
      <stop offset="0%" stop-color="#3B82F6"/>
      <stop offset="50%" stop-color="#1D4ED8"/>
      <stop offset="100%" stop-color="#1E40AF"/>
    </linearGradient>
  </defs>
</svg>
