<svg width="1920" height="600" viewBox="0 0 1920 600" fill="none" xmlns="http://www.w3.org/2000/svg">
  <!-- Background gradient -->
  <defs>
    <linearGradient id="bg-gradient" x1="0%" y1="0%" x2="100%" y2="100%">
      <stop offset="0%" style="stop-color:#1e40af;stop-opacity:1" />
      <stop offset="50%" style="stop-color:#3b82f6;stop-opacity:1" />
      <stop offset="100%" style="stop-color:#6366f1;stop-opacity:1" />
    </linearGradient>
    
    <!-- Pattern overlay -->
    <pattern id="hexagon-pattern" x="0" y="0" width="100" height="100" patternUnits="userSpaceOnUse">
      <polygon points="50,5 85,25 85,65 50,85 15,65 15,25" fill="none" stroke="rgba(255,255,255,0.1)" stroke-width="1"/>
    </pattern>
  </defs>
  
  <!-- Main background -->
  <rect width="1920" height="600" fill="url(#bg-gradient)"/>
  
  <!-- Pattern overlay -->
  <rect width="1920" height="600" fill="url(#hexagon-pattern)"/>
  
  <!-- DNA Helix illustration -->
  <g transform="translate(1200, 100)">
    <!-- DNA strands -->
    <path d="M0 50 Q50 25, 100 50 T200 50 T300 50 T400 50" stroke="rgba(255,255,255,0.3)" stroke-width="8" fill="none"/>
    <path d="M0 150 Q50 175, 100 150 T200 150 T300 150 T400 150" stroke="rgba(255,255,255,0.3)" stroke-width="8" fill="none"/>
    
    <!-- DNA base pairs -->
    <g stroke="rgba(255,255,255,0.2)" stroke-width="3">
      <line x1="25" y1="62" x2="25" y2="138"/>
      <line x1="75" y1="38" x2="75" y2="162"/>
      <line x1="125" y1="62" x2="125" y2="138"/>
      <line x1="175" y1="38" x2="175" y2="162"/>
      <line x1="225" y1="62" x2="225" y2="138"/>
      <line x1="275" y1="38" x2="275" y2="162"/>
      <line x1="325" y1="62" x2="325" y2="138"/>
      <line x1="375" y1="38" x2="375" y2="162"/>
    </g>
    
    <!-- DNA nucleotides -->
    <g fill="rgba(255,255,255,0.4)">
      <circle cx="25" cy="62" r="6"/>
      <circle cx="25" cy="138" r="6"/>
      <circle cx="75" cy="38" r="6"/>
      <circle cx="75" cy="162" r="6"/>
      <circle cx="125" cy="62" r="6"/>
      <circle cx="125" cy="138" r="6"/>
      <circle cx="175" cy="38" r="6"/>
      <circle cx="175" cy="162" r="6"/>
      <circle cx="225" cy="62" r="6"/>
      <circle cx="225" cy="138" r="6"/>
      <circle cx="275" cy="38" r="6"/>
      <circle cx="275" cy="162" r="6"/>
      <circle cx="325" cy="62" r="6"/>
      <circle cx="325" cy="138" r="6"/>
      <circle cx="375" cy="38" r="6"/>
      <circle cx="375" cy="162" r="6"/>
    </g>
  </g>
  
  <!-- Laboratory equipment silhouettes -->
  <g transform="translate(100, 350)" fill="rgba(255,255,255,0.15)">
    <!-- Microscope -->
    <g>
      <rect x="0" y="100" width="80" height="20" rx="5"/>
      <rect x="20" y="80" width="40" height="20" rx="3"/>
      <rect x="35" y="60" width="10" height="20"/>
      <circle cx="40" cy="50" r="15"/>
      <rect x="30" y="20" width="20" height="30" rx="5"/>
      <circle cx="40" cy="15" r="8"/>
    </g>
    
    <!-- Test tubes -->
    <g transform="translate(120, 0)">
      <rect x="0" y="40" width="8" height="60" rx="4"/>
      <rect x="0" y="40" width="8" height="20" fill="rgba(59,130,246,0.3)"/>
      
      <rect x="15" y="30" width="8" height="70" rx="4"/>
      <rect x="15" y="30" width="8" height="35" fill="rgba(168,85,247,0.3)"/>
      
      <rect x="30" y="50" width="8" height="50" rx="4"/>
      <rect x="30" y="50" width="8" height="15" fill="rgba(34,197,94,0.3)"/>
    </g>
    
    <!-- Petri dish -->
    <g transform="translate(200, 60)">
      <circle cx="20" cy="20" r="18" stroke="rgba(255,255,255,0.2)" stroke-width="2" fill="none"/>
      <circle cx="20" cy="20" r="12" fill="rgba(255,255,255,0.1)"/>
    </g>
  </g>
  
  <!-- Floating particles/molecules -->
  <g fill="rgba(255,255,255,0.2)">
    <circle cx="200" cy="100" r="3"/>
    <circle cx="350" cy="150" r="2"/>
    <circle cx="500" cy="80" r="4"/>
    <circle cx="750" cy="120" r="2"/>
    <circle cx="950" cy="180" r="3"/>
    <circle cx="1100" cy="90" r="2"/>
    <circle cx="300" cy="250" r="3"/>
    <circle cx="600" cy="300" r="2"/>
    <circle cx="800" cy="280" r="4"/>
    <circle cx="1000" cy="320" r="2"/>
    <circle cx="1300" cy="250" r="3"/>
    <circle cx="1500" cy="200" r="2"/>
  </g>
  
  <!-- Geometric accents -->
  <g stroke="rgba(255,255,255,0.1)" stroke-width="2" fill="none">
    <polygon points="1400,400 1450,450 1400,500 1350,450" />
    <polygon points="1600,350 1630,380 1600,410 1570,380" />
    <rect x="1650" y="450" width="30" height="30" rx="5"/>
  </g>
</svg>
